HIERARCHY
ROOT hip
{
  OFFSET 0 0 0
  CHANNELS 6 Xposition Yposition Zposition Zrotation Yrotation Xrotation
  JOINT abdomen
  {
    OFFSET 0 20.6881 -0.73152
    CHANNELS 3 Zrotation Xrotation Yrotation
    JOINT chest
    {
      OFFSET 0 11.7043 -0.48768
      CHANNELS 3 Zrotation Xrotation Yrotation
      JOINT neck
      {
        OFFSET 0 22.1894 -2.19456
        CHANNELS 3 Zrotation Xrotation Yrotation
        JOINT head
        {
          OFFSET -0.24384 7.07133 1.2192
          CHANNELS 3 Zrotation Xrotation Yrotation
          JOINT leftEye
          {
            OFFSET 4.14528 8.04674 8.04672
            CHANNELS 3 Zrotation Xrotation Yrotation
            End Site
            {
              OFFSET 1 0 0
            }
          }
          JOINT rightEye
          {
            OFFSET -3.6576 8.04674 8.04672
            CHANNELS 3 Zrotation Xrotation Yrotation
            End Site
            {
              OFFSET 1 0 0
            }
          }
        }
      }
      JOINT rCollar
      {
        OFFSET -2.68224 19.2634 -4.8768
        CHANNELS 3 Zrotation Xrotation Yrotation
        JOINT rShldr
        {
          OFFSET -8.77824 -1.95073 1.46304
          CHANNELS 3 Zrotation Xrotation Yrotation
          JOINT rForeArm
          {
            OFFSET -28.1742 -1.7115 0.48768
            CHANNELS 3 Zrotation Xrotation Yrotation
            JOINT rHand
            {
              OFFSET -22.5879 0.773209 7.07136
              CHANNELS 3 Zrotation Xrotation Yrotation
              JOINT rThumb1
              {
                OFFSET -1.2192 -0.487915 3.41376
                CHANNELS 3 Zrotation Xrotation Yrotation
                JOINT rThumb2
                {
                  OFFSET -3.37035 -0.52449 3.41376
                  CHANNELS 3 Zrotation Xrotation Yrotation
                  End Site
                  {
                    OFFSET -1.78271 -1.18214 1.43049
                  }
                }
              }
              JOINT rIndex1
              {
                OFFSET -7.75947 0.938293 5.60832
                CHANNELS 3 Zrotation Xrotation Yrotation
                JOINT rIndex2
                {
                  OFFSET -2.54057 -0.884171 1.56538
                  CHANNELS 3 Zrotation Xrotation Yrotation
                  End Site
                  {
                    OFFSET -1.62519 -0.234802 1.16502
                  }
                }
              }
              JOINT rMid1
              {
                OFFSET -8.24714 1.18213 3.41376
                CHANNELS 3 Zrotation Xrotation Yrotation
                JOINT rMid2
                {
                  OFFSET -3.10165 -0.590103 1.0647
                  CHANNELS 3 Zrotation Xrotation Yrotation
                  End Site
                  {
                    OFFSET -2.48547 -0.328903 0.83742
                  }
                }
              }
              JOINT rRing1
              {
                OFFSET -8.82822 0.546677 1.51678
                CHANNELS 3 Zrotation Xrotation Yrotation
                JOINT rRing2
                {
                  OFFSET -2.60934 -0.819778 -0.0198488
                  CHANNELS 3 Zrotation Xrotation Yrotation
                  End Site
                  {
                    OFFSET -2.33842 -0.294052 0.168128
                  }
                }
              }
              JOINT rPinky1
              {
                OFFSET -8.27202 -0.0477905 -0.4584
                CHANNELS 3 Zrotation Xrotation Yrotation
                JOINT rPinky2
                {
                  OFFSET -1.82734 -0.647385 -0.700984
                  CHANNELS 3 Zrotation Xrotation Yrotation
                  End Site
                  {
                    OFFSET -1.69225 -0.51767 -0.607171
                  }
                }
              }
            }
          }
        }
      }
      JOINT lCollar
      {
        OFFSET 2.68224 19.2634 -4.8768
        CHANNELS 3 Zrotation Xrotation Yrotation
        JOINT lShldr
        {
          OFFSET 8.77824 -1.95073 1.46304
          CHANNELS 3 Zrotation Xrotation Yrotation
          JOINT lForeArm
          {
            OFFSET 28.1742 -1.7115 0.48768
            CHANNELS 3 Zrotation Xrotation Yrotation
            JOINT lHand
            {
              OFFSET 22.5879 0.773209 7.07136
              CHANNELS 3 Zrotation Xrotation Yrotation
              JOINT lThumb1
              {
                OFFSET 1.2192 -0.487915 3.41376
                CHANNELS 3 Zrotation Xrotation Yrotation
                JOINT lThumb2
                {
                  OFFSET 3.37035 -0.52449 3.41376
                  CHANNELS 3 Zrotation Xrotation Yrotation
                  End Site
                  {
                    OFFSET 1.78271 -1.18214 1.43049
                  }
                }
              }
              JOINT lIndex1
              {
                OFFSET 7.75947 0.938293 5.60832
                CHANNELS 3 Zrotation Xrotation Yrotation
                JOINT lIndex2
                {
                  OFFSET 2.54057 -0.884171 1.56538
                  CHANNELS 3 Zrotation Xrotation Yrotation
                  End Site
                  {
                    OFFSET 1.62519 -0.234802 1.16502
                  }
                }
              }
              JOINT lMid1
              {
                OFFSET 8.24714 1.18213 3.41376
                CHANNELS 3 Zrotation Xrotation Yrotation
                JOINT lMid2
                {
                  OFFSET 3.10165 -0.590103 1.0647
                  CHANNELS 3 Zrotation Xrotation Yrotation
                  End Site
                  {
                    OFFSET 2.48547 -0.328903 0.83742
                  }
                }
              }
              JOINT lRing1
              {
                OFFSET 8.82822 0.546677 1.51678
                CHANNELS 3 Zrotation Xrotation Yrotation
                JOINT lRing2
                {
                  OFFSET 2.60934 -0.819778 -0.0198488
                  CHANNELS 3 Zrotation Xrotation Yrotation
                  End Site
                  {
                    OFFSET 2.33842 -0.294052 0.168128
                  }
                }
              }
              JOINT lPinky1
              {
                OFFSET 8.27202 -0.0477905 -0.4584
                CHANNELS 3 Zrotation Xrotation Yrotation
                JOINT lPinky2
                {
                  OFFSET 1.82734 -0.647385 -0.700984
                  CHANNELS 3 Zrotation Xrotation Yrotation
                  End Site
                  {
                    OFFSET 1.69225 -0.51767 -0.607171
                  }
                }
              }
            }
          }
        }
      }
    }
  }
  JOINT rButtock
  {
    OFFSET -8.77824 4.35084 1.2192
    CHANNELS 3 Zrotation Xrotation Yrotation
    JOINT rThigh
    {
      OFFSET 0 -1.70687 -2.19456
      CHANNELS 3 Zrotation Xrotation Yrotation
      JOINT rShin
      {
        OFFSET 0 -36.8199 0.73152
        CHANNELS 3 Zrotation Xrotation Yrotation
        JOINT rFoot
        {
          OFFSET 0.73152 -45.1104 -5.12064
          CHANNELS 3 Zrotation Xrotation Yrotation
          End Site
          {
            OFFSET -1.1221 -3.69964 12.103
          }
        }
      }
    }
  }
  JOINT lButtock
  {
    OFFSET 8.77824 4.35084 1.2192
    CHANNELS 3 Zrotation Xrotation Yrotation
    JOINT lThigh
    {
      OFFSET 0 -1.70687 -2.19456
      CHANNELS 3 Zrotation Xrotation Yrotation
      JOINT lShin
      {
        OFFSET 0 -36.8199 0.73152
        CHANNELS 3 Zrotation Xrotation Yrotation
        JOINT lFoot
        {
          OFFSET -0.73152 -45.1104 -5.12064
          CHANNELS 3 Zrotation Xrotation Yrotation
          End Site
          {
            OFFSET 1.1221 -3.69964 12.103
          }
        }
      }
    }
  }
}
MOTION
Frames:	4
Frame Time:	0.00833333
35.3124 63.5629 -36.8528 -127.591 -88.0509 124.905 0.386475 20.1648 -1.08307 -2.15964 -8.2361 -0.607334 2.53032 1.02085 0.576992 -1.02249 -10.2769 0.30885 -0.0 0.0 0.0 -0.0 0.0 0.0 6.39523e-17 2.10685e-13 5.96354e-16 37.0878 15.707 56.7771 -26.1413 -23.8029 57.3604 -0.347128 16.5262 2.38992 -1.18051e-09 -1.92392e-10 -2.31574e-09 -2.07172e-09 -3.13485e-10 -3.97865e-09 -1.18051e-09 -1.92389e-10 -2.31577e-09 7.73091 5.47488 0.417314 -1.18051e-09 -1.92392e-10 -2.31575e-09 2.90554 0.965183 0.102902 -1.1805e-09 -1.92391e-10 -2.31575e-09 10.2786 0.731801 0.0259123 -1.18051e-09 -1.92393e-10 -2.31575e-09 2.22167 -0.733487 -0.20892 -6.39659e-17 2.10687e-13 1.98785e-16 -41.3081 19.6983 -50.7378 27.4113 -27.8236 -63.7838 0.0690833 7.47818 -1.05706 2.14187e-09 3.58388e-10 9.16998e-10 3.70696e-09 6.26204e-10 1.56837e-09 2.14187e-09 3.5839e-10 9.17008e-10 -7.73091 5.47488 -0.417314 2.14187e-09 3.5839e-10 9.16992e-10 -2.90554 0.965183 -0.102902 2.14187e-09 3.58391e-10 9.1699e-10 -10.2786 0.731801 -0.0259123 2.14188e-09 3.58393e-10 9.16976e-10 -2.22167 -0.733487 0.20892 -2.03217e-16 0.0 -3.88251e-19 -20.5334 -37.3326 -24.1337 -2.9124 75.3521 3.90307 -7.04812 -26.8694 -13.1607 2.03217e-16 0.0 3.88251e-19 22.1164 -37.0078 24.6449 2.65104 74.5794 -3.75731 8.16816 -25.2668 17.2049
35.2914 63.5537 -36.8555 -127.511 -88.0452 124.821 0.410194 20.1606 -1.08557 -2.15698 -8.23786 -0.608191 2.53565 1.05733 0.587473 -1.04768 -10.3115 0.327384 -0.0 0.0 0.0 -0.0 0.0 0.0 3.05496e-15 4.18623e-13 1.83884e-14 37.0813 15.7325 56.7804 -26.1421 -23.8051 57.3639 -0.345749 16.4945 2.38508 -1.03519e-09 -1.82118e-10 -2.098e-09 -1.8177e-09 -2.9747e-10 -3.60514e-09 -1.03518e-09 -1.82116e-10 -2.09803e-09 7.73091 5.47488 0.417314 -1.03519e-09 -1.82118e-10 -2.09801e-09 2.90554 0.965183 0.102902 -1.03517e-09 -1.82118e-10 -2.09801e-09 10.2786 0.731801 0.0259123 -1.03519e-09 -1.82118e-10 -2.09801e-09 2.22167 -0.733487 -0.20892 2.96778e-15 4.18624e-13 1.79753e-14 -41.2843 19.7204 -50.7554 27.4147 -27.8373 -63.8056 0.0692284 7.486 -1.05818 1.92119e-09 3.22483e-10 8.45737e-10 3.32509e-09 5.63505e-10 1.447e-09 1.92119e-09 3.22484e-10 8.45747e-10 -7.73091 5.47488 -0.417314 1.92119e-09 3.22483e-10 8.45732e-10 -2.90554 0.965183 -0.102902 1.92119e-09 3.22484e-10 8.4573e-10 -10.2786 0.731801 -0.0259123 1.92119e-09 3.22487e-10 8.45716e-10 -2.22167 -0.733487 0.20892 -2.03217e-16 0.0 -3.88251e-19 -20.5068 -37.3306 -24.0992 -2.91744 75.3717 3.90949 -7.06997 -26.8858 -13.1949 2.03217e-16 0.0 3.88251e-19 22.1398 -36.9957 24.664 2.65697 74.6045 -3.76322 8.16445 -25.2846 17.1876
35.2699 63.5452 -36.8575 -127.444 -88.0424 124.75 0.432064 20.156 -1.08734 -2.15505 -8.24006 -0.609199 2.5399 1.09093 0.59799 -1.06115 -10.351 0.347353 -0.0 0.0 0.0 -0.0 0.0 0.0 1.37073e-14 7.84995e-13 5.76103e-14 37.0766 15.7569 56.7816 -26.1441 -23.8103 57.3722 -0.343983 16.4539 2.37886 -9.20558e-10 -1.3648e-10 -1.73863e-09 -1.61493e-09 -2.21118e-10 -2.98688e-09 -9.20549e-10 -1.3648e-10 -1.73865e-09 7.73091 5.47488 0.417314 -9.20556e-10 -1.36479e-10 -1.73863e-09 2.90554 0.965183 0.102902 -9.20545e-10 -1.36479e-10 -1.73864e-09 10.2786 0.731801 0.0259123 -9.20559e-10 -1.36479e-10 -1.73863e-09 2.22167 -0.733487 -0.20892 1.3701e-14 7.84992e-13 5.72127e-14 -41.2559 19.745 -50.7738 27.4183 -27.8517 -63.8285 0.0696213 7.5071 -1.06119 1.58628e-09 2.9373e-10 6.62519e-10 2.74541e-09 5.12884e-10 1.1326e-09 1.58628e-09 2.93731e-10 6.62528e-10 -7.73091 5.47488 -0.417314 1.58628e-09 2.93729e-10 6.62515e-10 -2.90554 0.965183 -0.102902 1.58627e-09 2.9373e-10 6.62514e-10 -10.2786 0.731801 -0.0259123 1.58629e-09 2.93732e-10 6.62501e-10 -2.22167 -0.733487 0.20892 -2.03217e-16 0.0 -3.88251e-19 -20.4804 -37.3282 -24.0636 -2.92225 75.3896 3.91571 -7.09252 -26.9019 -13.2302 2.03217e-16 0.0 3.88251e-19 22.1583 -36.9834 24.6791 2.66255 74.6283 -3.76885 8.16255 -25.3011 17.1745
35.2478 63.5378 -36.8592 -127.365 -88.0436 124.666 0.452805 20.1517 -1.09162 -2.15244 -8.24325 -0.610806 2.54374 1.12786 0.608117 -1.06758 -10.404 0.367467 -0.0 0.0 0.0 -0.0 0.0 0.0 2.49147e-14 1.13008e-12 9.69378e-14 37.0733 15.7795 56.782 -26.1469 -23.8176 57.3837 -0.342291 16.4147 2.37287 -8.11683e-10 -4.27685e-11 -1.25353e-09 -1.42057e-09 -6.22759e-11 -2.15145e-09 -8.11675e-10 -4.27714e-11 -1.25354e-09 7.73091 5.47488 0.417314 -8.11682e-10 -4.27674e-11 -1.25352e-09 2.90554 0.965183 0.102902 -8.11674e-10 -4.27679e-11 -1.25353e-09 10.2786 0.731801 0.0259123 -8.11687e-10 -4.27662e-11 -1.25351e-09 2.22167 -0.733487 -0.20892 2.4985e-14 1.13008e-12 9.65682e-14 -41.2256 19.7694 -50.7908 27.4223 -27.8676 -63.8538 0.070078 7.5315 -1.06468 1.19865e-09 2.78719e-10 3.88722e-10 2.0743e-09 4.85826e-10 6.61884e-10 1.19865e-09 2.78719e-10 3.88732e-10 -7.73091 5.47488 -0.417314 1.19865e-09 2.78716e-10 3.88721e-10 -2.90554 0.965183 -0.102902 1.19864e-09 2.78717e-10 3.8872e-10 -10.2786 0.731801 -0.0259123 1.19866e-09 2.78719e-10 3.8871e-10 -2.22167 -0.733487 0.20892 -2.03217e-16 0.0 -3.88251e-19 -20.4561 -37.3223 -24.0308 -2.92669 75.4062 3.92151 -7.11434 -26.9182 -13.2641 2.03217e-16 0.0 3.88251e-19 22.1714 -36.9707 24.6873 2.6678 74.6506 -3.77414 8.1618 -25.3165 17.1644
